Coordinates
version=1
nRows=14
nColumns=24
inDegrees=yes

Units are S.I. units (second, meters, Newtons, ...)
Angles are in degrees.

endheader
time	pelvis_tilt	pelvis_list	pelvis_rotation	pelvis_tx	pelvis_ty	pelvis_tz	hip_flexion_r	hip_adduction_r	hip_rotation_r	knee_angle_r	ankle_angle_r	subtalar_angle_r	mtp_angle_r	hip_flexion_l	hip_adduction_l	hip_rotation_l	knee_angle_l	ankle_angle_l	subtalar_angle_l	mtp_angle_l	lumbar_extension	lumbar_bending	lumbar_rotation
      3.84000000	     -8.56560347	     -2.90338399	     10.36048462	     -1.35408769	     -0.05047698	      0.53884769	     37.16292974	     -4.16297607	    -21.01816420	    -14.22194948	     -0.31946118	      5.86230796	      2.04853976	     -8.57873438	     -2.69204110	      6.22908112	    -13.34335210	     18.39608414	     16.77193119	     -1.58887900	      2.99394403	      0.71511525	    -14.22489941
      3.84500000	     -8.63568460	     -3.27287609	     10.43897038	     -1.34609016	     -0.05188259	      0.53915241	     37.27437957	     -3.77046507	    -20.93609809	    -14.76117039	     -0.91317054	      5.66565646	      1.80601507	     -8.54767202	     -3.26844312	      5.55225210	    -14.14919611	     18.54700079	     17.99384542	     -1.26010226	      3.21152590	      1.13574659	    -14.34768849
      3.85000000	     -8.70190089	     -3.64047088	     10.48890871	     -1.33804532	     -0.05322360	      0.53943676	     37.39767521	     -3.38489891	    -20.82238885	    -15.36220484	     -1.66460655	      5.39856971	      1.91270747	     -8.53887634	     -3.82329626	      5.09130710	    -14.92929675	     18.55128269	     18.87847784	     -0.89724324	      3.43001973	      1.56670993	    -14.42093050
      3.85500000	     -8.77077086	     -4.02666646	     10.52747449	     -1.32999358	     -0.05450310	      0.53972961	     37.54668845	     -2.99144788	    -20.66161325	    -16.03110933	     -2.55235846	      4.99144223	      2.12878418	     -8.48386221	     -4.40233462	      4.58791441	    -15.77861305	     18.48550995	     19.79827672	     -0.46225737	      3.65611512	      2.01969839	    -14.48251840
      3.86000000	     -8.83824340	     -4.43181092	     10.53927640	     -1.32194027	     -0.05570847	      0.54005179	     37.72365413	     -2.57790488	    -20.43969524	    -16.77405198	     -3.52649106	      4.44451049	      2.32200048	     -8.38662011	     -5.00592601	      4.03676583	    -16.70128213	     18.32916952	     20.74506686	      0.06542779	      3.88465378	      2.49921903	    -14.50541240
      3.86500000	     -8.90602885	     -4.85681581	     10.52866734	     -1.31388650	     -0.05683258	      0.54040180	     37.93229588	     -2.14589733	    -20.16358668	    -17.59866300	     -4.52001503	      3.77138393	      2.40409691	     -8.24080968	     -5.63649901	      3.45398523	    -17.70451948	     18.06903487	     21.70562754	      0.69169415	      4.11744796	      3.00561676	    -14.50646493
      3.87000000	     -8.96321905	     -5.28672459	     10.47224950	     -1.30584214	     -0.05786418	      0.54081783	     38.16756860	     -1.68952240	    -19.82264697	    -18.51540904	     -5.48211035	      2.96190638	      2.35139089	     -8.06148800	     -6.28458901	      2.78495258	    -18.78872446	     17.67897112	     22.72684073	      1.48781908	      4.33429839	      3.52366178	    -14.44211397
      3.87500000	     -9.01806696	     -5.72862657	     10.38144547	     -1.29780219	     -0.05880533	      0.54127581	     38.42953535	     -1.20786546	    -19.43189909	    -19.51390530	     -6.35461405	      2.05053056	      2.13102946	     -7.83451888	     -6.95656707	      2.06953802	    -19.95954901	     17.13865939	     23.76458270	      2.47486001	      4.54722509	      4.06031930	    -14.34082093
      3.88000000	     -9.05983996	     -6.17763011	     10.24275772	     -1.28975465	     -0.05965935	      0.54181289	     38.70209912	     -0.68828539	    -19.00173431	    -20.58811702	     -7.07806977	      1.06202439	      1.73403437	     -7.57700747	     -7.65371742	      1.30613213	    -21.20772998	     16.41404934	     24.82582735	      3.79433991	      4.74210707	      4.61157598	    -14.12121271
      3.88500000	     -9.10626626	     -6.63737505	     10.10512500	     -1.28172024	     -0.06039908	      0.54234901	     38.98061213	     -0.15766869	    -18.58191864	    -21.69492731	     -7.67249254	      0.00668148	      1.22066788	     -7.24787439	     -8.37546404	      0.56407826	    -22.56079924	     15.49978825	     25.84191300	      5.22690612	      4.94279429	      5.17276172	    -13.94519517
      3.89000000	     -9.09026639	     -7.03264042	      9.96932795	     -1.27377668	     -0.06094193	      0.54293129	     39.17898195	      0.34357379	    -18.09424684	    -22.81613322	     -8.08969279	     -1.05477586	      0.61126966	     -6.93073806	     -9.06312552	     -0.19143899	    -23.97418109	     14.26213785	     26.82084446	      7.15514819	      5.04512419	      5.66931303	    -13.81297020
      3.89500000	     -9.17668220	     -7.52977964	      9.80699249	     -1.26568837	     -0.06154368	      0.54348471	     39.46015606	      0.93185939	    -17.73777808	    -23.88355204	     -8.41807065	     -2.13772477	      0.21106484	     -6.42649641	     -9.84458033	     -0.86312600	    -25.57141971	     13.03977966	     27.73489702	      8.37039376	      5.30563101	      6.26551018	    -13.66263888
      3.90000000	     -9.09962920	     -7.87096085	      9.61551317	     -1.25781572	     -0.06184564	      0.54421401	     39.54121197	      1.46971272	    -17.22982791	    -24.93691586	     -8.56326947	     -3.17080224	     -0.21400061	     -6.08216137	    -10.51826750	     -1.57237038	    -27.11417229	     11.31887504	     28.58813773	     10.80741436	      5.30563251	      6.71139339	    -13.39128300
      3.90500000	     -9.10909681	     -8.25895746	      9.43098268	     -1.24990413	     -0.06214667	      0.54490852	     39.66226040	      2.03494580	    -16.83173110	    -25.88897574	     -8.64275311	     -4.15371296	     -0.36205964	     -5.54960910	    -11.23806028	     -2.18358729	    -28.83561234	      9.54296283	     29.37442185	     12.53089094	      5.42158430	      7.19106085	    -13.18219814
